<?xml version="1.0" encoding="utf-8"?>
<!-- Generator: Adobe Illustrator 19.1.0, SVG Export Plug-In . SVG Version: 6.00 Build 0)  -->
<svg version="1.1" id="Layer_1" xmlns="http://www.w3.org/2000/svg" xmlns:xlink="http://www.w3.org/1999/xlink" x="0px" y="0px"
	 viewBox="0 0 640 640" style="enable-background:new 0 0 640 640;" xml:space="preserve">
<style type="text/css">
	.st0{fill:#FFFFFF;}
</style>
<g>
	<path class="st0" d="M468.1,301.6c-21.3-44.9-53.5-79.3-98.2-101.5c-36.7-18.3-75.6-24.9-116.3-21.3c-11.3,1-22.2,3.1-32.7,6
		c-32,7.6-59.7,21.4-83.1,41.6V7L42.6,38.7l0.2,584.2H138V585c8.6,7.2,17.6,14,27.8,20.1c21.7,13,44.7,21,68.4,25.2
		c23.6,4.8,47.7,4.8,72.2,1.3c47.6-6.9,88.3-27.6,121.4-62.1c44-45.9,62.6-102.2,62.7-164.8C490.6,368.9,483.6,334.2,468.1,301.6
		 M352.9,509.5c-21.6,21.7-48.4,32.6-78.6,34.9c-2.6,0.2-5.1,0.3-7.7,0.4c-6.1,0.2-12.1,0-18.1-0.5c-0.4,0-0.7-0.1-0.7-0.1
		c-6.1-0.6-11.7-1.5-17.3-2.8c-0.6-0.1-1.1-0.3-1.7-0.4c-5.5-1.3-10.9-3-16.2-5.1c-0.5-0.2-1-0.4-1.5-0.7c-5.4-2.2-10.8-4.8-16-7.9
		c-35-20.9-54.3-52.8-61.1-92.1c-6.3-36.1-2.5-71.3,15.8-103.8c20.4-36.1,51.3-57.2,92.5-62.9c8.2-1.1,16.3-1.6,24.3-1.5
		c22.4,0.4,43.8,5.9,63.9,18c33.2,20,51.6,50.5,59.3,87.8c2.2,10.8,2.8,22,3.5,27.6C392.7,445.5,381.4,480.9,352.9,509.5"/>
	<circle class="st0" cx="534.9" cy="108.3" r="62.7"/>
</g>
</svg>
